Coordinates
version=1
nRows=21
nColumns=12
inDegrees=yes

Units are S.I. units (second, meters, Newtons, ...)
Angles are in degrees

endheader
time	SC_y	SC_z	SC_x	AC_y	AC_z	AC_x	GH_y	GH_z	GH_yy	EL_x	PS_y
       0.0              -21.22           2.09          33.09           62.1         -9.613          6.517         -85.82          -14.3          59.25          96.23          85.38
    0.0351              -21.22          2.093           33.1           62.1         -9.611          6.514         -85.81          -14.3          59.22          96.22          85.38
   0.07021              -21.22          2.097           33.1           62.1         -9.609          6.511          -85.8         -14.29          59.19          96.21          85.37
    0.1053              -21.22          2.101          33.11           62.1         -9.607          6.508         -85.78         -14.29          59.15           96.2          85.37
    0.1404              -21.22          2.106          33.12           62.1         -9.604          6.505         -85.77         -14.29          59.11          96.18          85.37
    0.1755              -21.22           2.11          33.13           62.1         -9.602          6.501         -85.75         -14.28          59.07          96.17          85.36
    0.2106              -21.22          2.115          33.14           62.1         -9.599          6.497         -85.74         -14.28          59.03          96.15          85.36
    0.2457              -21.22          2.121          33.15          62.11         -9.596          6.493         -85.72         -14.27          58.98          96.13          85.35
    0.2808              -21.23          2.126          33.16          62.11         -9.593          6.489          -85.7         -14.27          58.93          96.11          85.34
    0.3159              -21.23          2.132          33.17          62.11         -9.589          6.484         -85.68         -14.26          58.88          96.09          85.34
     0.351              -21.23          2.139          33.18          62.11         -9.586          6.479         -85.66         -14.25          58.82          96.07          85.33
    0.3861              -21.23          2.146           33.2          62.11         -9.582          6.474         -85.63         -14.25          58.76          96.05          85.32
    0.4212              -21.23          2.154          33.21          62.11         -9.577          6.468         -85.61         -14.24          58.69          96.02          85.32
    0.4563              -21.24          2.162          33.23          62.11         -9.573          6.461         -85.58         -14.23          58.62          95.99          85.31
    0.4914              -21.24          2.171          33.24          62.12         -9.568          6.455         -85.55         -14.22          58.54          95.97           85.3
    0.5265              -21.24           2.18          33.26          62.12         -9.562          6.447         -85.52         -14.21          58.46          95.93          85.29
    0.5616              -21.24          2.191          33.28          62.12         -9.556          6.439         -85.48          -14.2          58.36           95.9          85.28
    0.5967              -21.25          2.202           33.3          62.12          -9.55           6.43         -85.44         -14.19          58.26          95.86          85.26
    0.6319              -21.25          2.215          33.33          62.13         -9.543          6.421          -85.4         -14.18          58.15          95.82          85.25
     0.667              -21.25          2.228          33.35          62.13         -9.535           6.41         -85.36         -14.17          58.03          95.77          85.24
    0.7021              -21.26          2.243          33.38          62.13         -9.527          6.399         -85.31         -14.15           57.9          95.72          85.22
